<svg xmlns="http://www.w3.org/2000/svg" xml:space="preserve" style="fill-rule:evenodd;clip-rule:evenodd;stroke-linejoin:round;stroke-miterlimit:2" viewBox="0 0 32 32"><path d="M3.778 26.933c-.246.225-.633.141-.702-.184A4 4 0 0 1 3 25.912V14.915q0-.518.076-.886c.068-.288.384-.357.614-.171l7.093 5.732a.597.597 0 0 1 .028.903zM6.085 29q-.597 0-1.064-.119l-.06-.017c-.374-.104-.423-.557-.136-.82l7.322-6.714c.218-.2.55-.21.779-.022l1.187.968q.479.379.978.578.5.189 1.01.189t1.01-.189q.511-.199.989-.578l1.186-.968a.596.596 0 0 1 .78.022l7.322 6.714c.286.263.238.715-.137.818l-.07.019a4.2 4.2 0 0 1-1.053.119zm23.041-2.251c-.068.319-.448.407-.688.186l-7.036-6.442a.596.596 0 0 1 .028-.903l7.096-5.735c.224-.181.534-.107.6.174q.087.368.087.886v10.997q0 .479-.087.837M7.766 14.918l-3.27-2.668a1.55 1.55 0 0 1 0-2.4l10.29-8.398a2 2 0 0 1 2.535 0L27.61 9.85c.76.62.76 1.78 0 2.4l-3.163 2.582v-3.487a2.005 2.005 0 0 0-2.004-2.005H9.77a2.005 2.005 0 0 0-2.004 2.005z" style="fill:#bec5f0;fill-rule:nonzero"/></svg>