<svg viewBox="0 0 24 24" fill="none" xmlns="http://www.w3.org/2000/svg">
<path d="M3 18V16C3 14.6739 3.52716 13.4025 4.46484 12.4648C5.40253 11.5271 6.67392 11 8 11H17.5859L14.293 7.70702C13.9024 7.31649 13.9024 6.68348 14.293 6.29295C14.6835 5.90243 15.3165 5.90243 15.707 6.29295L20.707 11.293C21.0976 11.6835 21.0976 12.3165 20.707 12.707L15.707 17.707C15.3165 18.0975 14.6835 18.0975 14.293 17.707C13.9024 17.3165 13.9024 16.6835 14.293 16.293L17.5859 13H8C7.20435 13 6.44152 13.3163 5.87891 13.8789C5.3163 14.4415 5 15.2043 5 16V18C5 18.5523 4.55228 19 4 19C3.44772 19 3 18.5523 3 18Z" fill="currentColor"/>
</svg>
