<svg xmlns="http://www.w3.org/2000/svg" xml:space="preserve" style="fill-rule:evenodd;clip-rule:evenodd;stroke-linejoin:round;stroke-miterlimit:2" viewBox="0 0 212 33"><path d="M0 0h175.869v33H0z" style="fill:none" transform="scale(1.20235 1)"/><path d="M1.87 62.944c-.59.54-1.521.34-1.687-.442C.06 61.927 0 61.257 0 60.491V34.06c0-.83.06-1.54.183-2.131.163-.692.923-.857 1.476-.41l17.047 13.777c.681.55.713 1.578.067 2.17L1.869 62.943l.001.001Zm5.545 4.969c-.957 0-1.81-.096-2.559-.287l-.144-.04c-.899-.251-1.014-1.34-.326-1.971l17.599-16.137a1.44 1.44 0 0 1 1.873-.054l2.852 2.328a9.394 9.394 0 0 0 2.35 1.389c.8.303 1.61.455 2.428.455a6.792 6.792 0 0 0 2.429-.455 9.241 9.241 0 0 0 2.376-1.389l2.852-2.328a1.442 1.442 0 0 1 1.873.053l17.599 16.138c.688.631.571 1.717-.329 1.966l-.168.044c-.73.192-1.575.288-2.532.288H7.415Zm55.379-5.41c-.163.767-1.075.977-1.654.447L44.23 47.465a1.432 1.432 0 0 1 .067-2.17l17.055-13.783c.538-.436 1.283-.257 1.442.417.14.59.209 1.3.209 2.13v26.432c0 .766-.07 1.437-.209 2.011v.001Z" style="fill:#000091;fill-rule:nonzero" transform="translate(2.798 1.81) scale(.41799)"/><path d="m11.451 34.067-7.858-6.414a3.727 3.727 0 0 1 0-5.768L28.324 1.699a4.843 4.843 0 0 1 6.092 0l24.731 20.186a3.727 3.727 0 0 1 0 5.768l-7.603 6.206v-8.381c0-2.643-2.174-4.817-4.817-4.817H16.268c-2.643 0-4.817 2.174-4.817 4.817v8.59-.001Z" style="fill:#fbc63a;fill-rule:nonzero" transform="translate(2.798 1.81) scale(.41799)"/><path d="M.392-.895C.981-.196 1.765.245 2.869.245c1.165 0 2.207-.711 2.231-2.01 0-2.134-2.954-1.766-2.954-2.82 0-.319.232-.589.723-.589.478 0 .883.319 1.201.711L5.1-5.37c-.441-.601-1.299-1.054-2.243-1.054-1.288 0-2.207.821-2.207 1.912 0 2.17 2.954 1.766 2.954 2.845 0 .367-.257.662-.76.662-.588 0-1.042-.344-1.422-.822l-1.03.932ZM5.909-.895c.589.699 1.373 1.14 2.477 1.14 1.165 0 2.207-.711 2.231-2.01 0-2.134-2.954-1.766-2.954-2.82 0-.319.232-.589.723-.589.478 0 .883.319 1.201.711l1.03-.907c-.441-.601-1.299-1.054-2.243-1.054-1.288 0-2.207.821-2.207 1.912 0 2.17 2.954 1.766 2.954 2.845 0 .367-.257.662-.76.662-.588 0-1.042-.344-1.422-.822l-1.03.932ZM13.744.184c.723 0 1.459-.307 1.851-.785V0h1.557v-3.997c0-1.361-.92-2.427-2.709-2.427-1.128 0-2.036.466-2.587 1.226l1.14.87c.331-.453.797-.735 1.397-.735.712 0 1.202.416 1.202 1.066v.16l-1.888.318c-1.324.221-2.048.92-2.048 1.852 0 1.14.846 1.851 2.085 1.851Zm-.54-1.925c0-.38.27-.65.92-.76l1.471-.245v.87c-.307.491-.821.822-1.533.822-.527 0-.858-.27-.858-.687ZM18.317 1.079c0 1.299 1.164 1.986 3.138 1.986 1.925 0 3.237-1.054 3.237-2.427 0-1.153-.846-1.987-2.403-1.987h-1.557c-.282 0-.417-.122-.417-.367 0-.135.074-.27.209-.393.183.037.38.049.588.049 1.594 0 2.501-.98 2.501-2.194 0-.209-.024-.405-.086-.601h1.091v-1.324h-2.255a3.044 3.044 0 0 0-1.251-.245c-1.545 0-2.476.968-2.476 2.17 0 .686.294 1.299.833 1.704-.466.343-.674.736-.674 1.226 0 .319.135.65.38.895-.552.404-.858.895-.858 1.508Zm2.82-4.316c-.675 0-1.079-.404-1.079-1.017 0-.601.404-1.006 1.079-1.006.649 0 1.066.393 1.066 1.006s-.417 1.017-1.066 1.017ZM19.788.858c0-.38.184-.65.417-.87h1.912c.748 0 1.03.331 1.03.797 0 .613-.576 1.029-1.704 1.029-1.091 0-1.655-.367-1.655-.956ZM31.164-1.005l-1.115-.883c-.331.441-.92.736-1.594.736-.969 0-1.68-.466-1.827-1.619h4.328c.049-.208.098-.527.098-.87 0-1.619-1.128-2.783-2.844-2.783-2.023 0-3.176 1.508-3.176 3.334 0 1.803 1.239 3.335 3.433 3.335 1.165 0 2.121-.478 2.697-1.25Zm-2.991-4.144c.87 0 1.324.625 1.349 1.25h-2.845c.172-.809.699-1.25 1.496-1.25ZM31.949-.895c.589.699 1.373 1.14 2.477 1.14 1.164 0 2.206-.711 2.231-2.01 0-2.134-2.955-1.766-2.955-2.82 0-.319.233-.589.724-.589.478 0 .882.319 1.201.711l1.03-.907c-.441-.601-1.3-1.054-2.244-1.054-1.287 0-2.206.821-2.206 1.912 0 2.17 2.954 1.766 2.954 2.845 0 .367-.257.662-.76.662-.588 0-1.042-.344-1.422-.822l-1.03.932Z" style="fill:#000091;fill-rule:nonzero" transform="matrix(1.79448 0 0 1.79449 68.034 24.25)"/><path d="m17.581-1.005-1.116-.883c-.331.441-.919.736-1.594.736-.968 0-1.679-.466-1.826-1.619h4.327a3.96 3.96 0 0 0 .099-.87c0-1.619-1.128-2.783-2.845-2.783-2.023 0-3.175 1.508-3.175 3.334 0 1.803 1.238 3.335 3.433 3.335 1.164 0 2.121-.478 2.697-1.25Zm-2.992-4.144c.871 0 1.324.625 1.349 1.25h-2.844c.171-.809.699-1.25 1.495-1.25ZM1.263 0h1.741v-6.155l1.912 3.213h1.226l1.913-3.213V0h1.741v-8.582h-2.17L5.529-4.978 3.433-8.582h-2.17V0Z" style="fill:#000091;fill-rule:nonzero" transform="matrix(1.79448 0 0 1.79449 35.782 24.25)"/><path d="M175.368 16.25c0 4.415-3.581 8-7.992 8h-33.384c-4.411 0-7.992-3.585-7.992-8s3.581-8 7.992-8h33.384c4.411 0 7.992 3.585 7.992 8Z" style="fill:#ececfe" transform="matrix(1.001 0 0 1 18.094 0)"/><path d="M.184 0h1.851l.822-2.231h3.432L7.111 0h1.851L5.713-8.582h-2.28L.184 0Zm3.212-3.715 1.177-3.224L5.75-3.715H3.396ZM10.409 0h5.002v-1.582H12.15v-7h-1.741V0ZM17.066 0h1.741v-3.47h1.091c1.888 0 3.04-.968 3.04-2.55 0-1.593-1.152-2.562-3.04-2.562h-2.832V0Zm2.906-7.135c.735 0 1.177.441 1.177 1.091 0 .699-.442 1.128-1.177 1.128h-1.165v-2.219h1.165ZM24.495 0h1.741v-3.58h4.328V0h1.741v-8.582h-1.741v3.421h-4.328v-3.421h-1.741V0ZM33.752 0h1.851l.821-2.231h3.433L40.679 0h1.851l-3.249-8.582h-2.28L33.752 0Zm3.212-3.715 1.177-3.224 1.177 3.224h-2.354Z" style="fill:#5858d3;fill-rule:nonzero" transform="matrix(.87464 0 0 .89724 150.249 20.25)"/></svg>