<svg xmlns="http://www.w3.org/2000/svg" xml:space="preserve" style="fill-rule:evenodd;clip-rule:evenodd;stroke-linejoin:round;stroke-miterlimit:2" viewBox="0 0 212 33"><path d="M0 0h175.869v33H0z" style="fill:none" transform="scale(1.20235 1)"/><path d="M1.87 62.944c-.59.54-1.521.34-1.687-.442C.06 61.927 0 61.257 0 60.491V34.06c0-.83.06-1.54.183-2.131.163-.692.923-.857 1.476-.41l17.047 13.777c.681.55.713 1.578.067 2.17L1.869 62.943l.001.001Zm5.545 4.969c-.957 0-1.81-.096-2.559-.287l-.144-.04c-.899-.251-1.014-1.34-.326-1.971l17.599-16.137a1.436 1.436 0 0 1 1.873-.054l2.852 2.328a9.394 9.394 0 0 0 2.35 1.389c.8.303 1.61.455 2.428.455a6.792 6.792 0 0 0 2.429-.455 9.241 9.241 0 0 0 2.376-1.389l2.852-2.328a1.437 1.437 0 0 1 1.873.053l17.599 16.138c.688.631.571 1.717-.329 1.966l-.168.044c-.73.192-1.575.288-2.532.288H7.415Zm55.379-5.41c-.163.767-1.075.977-1.654.447L44.23 47.465a1.433 1.433 0 0 1 .067-2.17l17.055-13.783c.538-.436 1.283-.257 1.442.417.14.59.209 1.3.209 2.13v26.432c0 .766-.07 1.437-.209 2.011v.001Z" style="fill:#000091;fill-rule:nonzero" transform="matrix(.41799 0 0 .41799 2.798 1.81)"/><path d="m11.451 34.067-7.858-6.414a3.725 3.725 0 0 1 0-5.768L28.324 1.699a4.83 4.83 0 0 1 6.092 0l24.731 20.186a3.725 3.725 0 0 1 0 5.768l-7.603 6.206v-8.381c0-2.643-2.174-4.817-4.817-4.817H16.268c-2.643 0-4.817 2.174-4.817 4.817v8.59-.001Z" style="fill:#c9191e;fill-rule:nonzero" transform="matrix(.41799 0 0 .41799 2.798 1.81)"/><text x="60.743" y="61.1" style="font-family:&quot;Marianne-Bold&quot;,&quot;Marianne&quot;;font-weight:700;font-size:12.26px;fill:#000091" transform="matrix(1.79448 0 0 1.79449 -73.22 -85.394)">Me<tspan x="78.716px 84.233px 89.787px 96.714px 103.26px" y="61.1px 61.1px 61.1px 61.1px 61.1px">ssage</tspan>s</text><path d="M175.368 16.25c0 4.415-3.581 8-7.992 8h-33.384c-4.411 0-7.992-3.585-7.992-8s3.581-8 7.992-8h33.384c4.411 0 7.992 3.585 7.992 8Z" style="fill:#ececfe" transform="matrix(1.001 0 0 1 18.094 0)"/><text x="60.743" y="61.1" style="font-family:&quot;Marianne-Bold&quot;,&quot;Marianne&quot;;font-weight:700;font-size:12.26px;fill:#5858d3" transform="matrix(.87464 0 0 .89724 97.121 -34.572)">ALPHA</text></svg>