<svg xmlns="http://www.w3.org/2000/svg" width="63" height="68" fill="none"><path fill="#797af5" d="M1.87 62.944c-.59.54-1.521.34-1.687-.442C.06 61.927 0 61.257 0 60.491V34.06c0-.83.06-1.54.183-2.131.163-.692.923-.857 1.476-.41l17.047 13.777c.681.55.713 1.578.067 2.17L1.869 62.943Zm5.545 4.969c-.957 0-1.81-.096-2.559-.287a9.691 9.691 0 0 1-.144-.04c-.899-.251-1.014-1.34-.326-1.971l17.599-16.137a1.432 1.432 0 0 1 1.873-.054l2.852 2.328a9.413 9.413 0 0 0 2.35 1.389c.8.303 1.61.455 2.428.455a6.81 6.81 0 0 0 2.429-.455 9.248 9.248 0 0 0 2.376-1.389l2.852-2.328a1.432 1.432 0 0 1 1.873.053l17.599 16.138c.688.631.571 1.717-.329 1.966l-.168.044c-.73.192-1.575.288-2.532.288H7.415Zm55.379-5.41c-.163.767-1.075.977-1.654.447L44.23 47.465a1.432 1.432 0 0 1 .067-2.17l17.055-13.783c.538-.436 1.283-.257 1.442.417.14.59.209 1.3.209 2.13v26.432c0 .766-.07 1.437-.209 2.011Z"/><path fill="#FFDD88" d="m11.451 34.067-7.858-6.414a3.723 3.723 0 0 1 0-5.768L28.324 1.699a4.817 4.817 0 0 1 6.092 0l24.731 20.186a3.723 3.723 0 0 1 0 5.768l-7.603 6.206v-8.381a4.817 4.817 0 0 0-4.817-4.817H16.268a4.817 4.817 0 0 0-4.817 4.817v8.59Z"/></svg>